<mxfile host="app.diagrams.net" modified="2023-12-10T13:22:54.235Z" agent="Mozilla/5.0 (Windows NT 10.0; Win64; x64) AppleWebKit/537.36 (KHTML, like Gecko) Chrome/119.0.0.0 Safari/537.36" etag="tr3kDcisuT8epN6kYVyQ" version="22.1.7" type="device">
  <diagram id="prtHgNgQTEPvFCAcTncT" name="Page-1">
    <mxGraphModel dx="1434" dy="738" grid="1" gridSize="10" guides="1" tooltips="1" connect="1" arrows="1" fold="1" page="1" pageScale="1" pageWidth="827" pageHeight="1169" math="0" shadow="0">
      <root>
        <mxCell id="0" />
        <mxCell id="1" parent="0" />
        <mxCell id="ZnL__zsWc7MqWRQtDTG0-12" value="&lt;b style=&quot;font-size: 16px;&quot;&gt;NODE A&lt;/b&gt;" style="rounded=0;whiteSpace=wrap;html=1;fillColor=#fff2cc;strokeColor=#d6b656;verticalAlign=top;fontSize=16;" parent="1" vertex="1">
          <mxGeometry x="60" y="210" width="320" height="170" as="geometry" />
        </mxCell>
        <mxCell id="ZnL__zsWc7MqWRQtDTG0-6" value="Containerized web application" style="whiteSpace=wrap;html=1;fontSize=16;" parent="1" vertex="1">
          <mxGeometry x="90" y="250" width="130" height="90" as="geometry" />
        </mxCell>
        <mxCell id="ZnL__zsWc7MqWRQtDTG0-13" value="&lt;b style=&quot;font-size: 16px;&quot;&gt;NODE B&lt;/b&gt;" style="rounded=0;whiteSpace=wrap;html=1;fillColor=#fff2cc;strokeColor=#d6b656;align=center;verticalAlign=top;fontSize=16;" parent="1" vertex="1">
          <mxGeometry x="470" y="210" width="300" height="170" as="geometry" />
        </mxCell>
        <mxCell id="ZnL__zsWc7MqWRQtDTG0-8" value="Containerized database" style="whiteSpace=wrap;html=1;fontSize=16;" parent="1" vertex="1">
          <mxGeometry x="630" y="250" width="120" height="90" as="geometry" />
        </mxCell>
        <mxCell id="ZnL__zsWc7MqWRQtDTG0-17" value="" style="endArrow=classic;startArrow=classic;html=1;rounded=0;exitX=1;exitY=0.5;exitDx=0;exitDy=0;entryX=0;entryY=0.5;entryDx=0;entryDy=0;fontSize=16;" parent="1" source="ZnL__zsWc7MqWRQtDTG0-6" target="ZnL__zsWc7MqWRQtDTG0-8" edge="1">
          <mxGeometry width="50" height="50" relative="1" as="geometry">
            <mxPoint x="390" y="400" as="sourcePoint" />
            <mxPoint x="440" y="350" as="targetPoint" />
          </mxGeometry>
        </mxCell>
        <mxCell id="ZnL__zsWc7MqWRQtDTG0-18" value="Network Policies" style="edgeLabel;html=1;align=center;verticalAlign=middle;resizable=0;points=[];fontSize=16;labelBackgroundColor=#fff2cc;" parent="ZnL__zsWc7MqWRQtDTG0-17" vertex="1" connectable="0">
          <mxGeometry x="-0.1073" y="-3" relative="1" as="geometry">
            <mxPoint x="-93" y="-8" as="offset" />
          </mxGeometry>
        </mxCell>
        <mxCell id="GXGvMigDv4v1KChLB91W-1" value="" style="endArrow=none;html=1;rounded=0;fillColor=#f8cecc;strokeColor=#b85450;fontSize=16;" edge="1" parent="1">
          <mxGeometry width="50" height="50" relative="1" as="geometry">
            <mxPoint x="400" y="320" as="sourcePoint" />
            <mxPoint x="440" y="270" as="targetPoint" />
          </mxGeometry>
        </mxCell>
        <mxCell id="GXGvMigDv4v1KChLB91W-2" value="" style="endArrow=none;html=1;rounded=0;fillColor=#f8cecc;strokeColor=#b85450;fontSize=16;" edge="1" parent="1">
          <mxGeometry width="50" height="50" relative="1" as="geometry">
            <mxPoint x="400" y="270" as="sourcePoint" />
            <mxPoint x="440" y="320" as="targetPoint" />
          </mxGeometry>
        </mxCell>
        <mxCell id="GXGvMigDv4v1KChLB91W-5" value="" style="endArrow=none;dashed=1;html=1;dashPattern=1 3;strokeWidth=2;rounded=0;fillColor=#f8cecc;strokeColor=#b85450;fontSize=16;" edge="1" parent="1">
          <mxGeometry width="50" height="50" relative="1" as="geometry">
            <mxPoint x="420" y="400" as="sourcePoint" />
            <mxPoint x="420" y="320" as="targetPoint" />
          </mxGeometry>
        </mxCell>
        <mxCell id="GXGvMigDv4v1KChLB91W-6" value="&lt;font color=&quot;#ff3333&quot; style=&quot;font-size: 16px;&quot;&gt;Security Group rules&lt;/font&gt;" style="text;html=1;align=center;verticalAlign=middle;whiteSpace=wrap;rounded=0;fontSize=16;strokeWidth=1;strokeColor=#FF3333;" vertex="1" parent="1">
          <mxGeometry x="370" y="410" width="110" height="60" as="geometry" />
        </mxCell>
        <mxCell id="GXGvMigDv4v1KChLB91W-7" value="Network Policies" style="edgeLabel;html=1;align=center;verticalAlign=middle;resizable=0;points=[];fontSize=16;labelBackgroundColor=#fff2cc;" vertex="1" connectable="0" parent="1">
          <mxGeometry x="550" y="290" as="geometry" />
        </mxCell>
      </root>
    </mxGraphModel>
  </diagram>
</mxfile>
